<svg width="30" height="30" viewBox="0 0 30 30" fill="none" xmlns="http://www.w3.org/2000/svg">
<path fill-rule="evenodd" clip-rule="evenodd" d="M28.8747 28.1965C28.6874 28.3838 28.3837 28.3838 28.1964 28.1965L2.01732 2.01738C1.83003 1.83008 1.83003 1.52642 2.01732 1.33913C2.20461 1.15183 2.50828 1.15183 2.69557 1.33912L28.8747 27.5182C29.062 27.7055 29.062 28.0092 28.8747 28.1965Z" fill="#1D1D1D"/>
<path fill-rule="evenodd" clip-rule="evenodd" d="M1.66377 0.985648C2.04632 0.603092 2.66657 0.60309 3.04912 0.985647L29.2282 27.1648C29.6108 27.5473 29.6108 28.1676 29.2282 28.5501C28.8457 28.9327 28.2254 28.9327 27.8429 28.5501L1.66377 2.37101C1.28121 1.98845 1.28121 1.3682 1.66377 0.985648Z" fill="#1D1D1D"/>
<path fill-rule="evenodd" clip-rule="evenodd" d="M1.33918 28.1965C1.52647 28.3838 1.83013 28.3838 2.01743 28.1965L28.1965 2.01738C28.3838 1.83008 28.3838 1.52642 28.1965 1.33913C28.0093 1.15183 27.7056 1.15183 27.5183 1.33912L1.33918 27.5182C1.15188 27.7055 1.15188 28.0092 1.33918 28.1965Z" fill="#1D1D1D"/>
<path fill-rule="evenodd" clip-rule="evenodd" d="M28.5501 0.985648C28.1675 0.603092 27.5473 0.60309 27.1647 0.985647L0.985622 27.1648C0.603066 27.5473 0.603066 28.1676 0.985623 28.5501C1.36818 28.9327 1.98842 28.9327 2.37098 28.5501L28.5501 2.37101C28.9327 1.98845 28.9327 1.3682 28.5501 0.985648Z" fill="#1D1D1D"/>
</svg>
