<svg width="64" height="64" viewBox="0 0 64 64" fill="none" xmlns="http://www.w3.org/2000/svg">
<path d="M48.8281 37.9474C47.8121 37.4924 46.635 37.9514 46.187 38.9594C46.146 39.0484 42.054 47.9724 31.8471 48.0924C31.7841 48.0924 31.7221 48.0945 31.6591 48.0945C22.0551 48.0945 17.913 39.3215 17.7411 38.9445C17.2841 37.9445 16.1041 37.4995 15.0961 37.9525C14.0901 38.4075 13.6431 39.5905 14.0981 40.5984C14.3111 41.0715 19.4342 52.0945 31.6511 52.0945C31.7311 52.0945 31.8131 52.0925 31.8931 52.0925C44.6351 51.9425 49.6331 41.0515 49.8381 40.5885C50.2911 39.5785 49.8361 38.3965 48.8281 37.9475L48.8281 37.9474ZM31.999 0.000488281C14.325 0.000488281 -0.000976562 14.3265 -0.000976562 32.0005C-0.000976562 49.6745 14.325 64.0005 31.999 64.0005C49.673 64.0005 63.999 49.6745 63.999 32.0005C63.999 14.3265 49.673 0.000488281 31.999 0.000488281ZM31.999 60.0005C16.56 60.0005 3.99902 47.4395 3.99902 32.0005C3.99902 16.5615 16.56 4.00049 31.999 4.00049C47.438 4.00049 59.999 16.5615 59.999 32.0005C59.999 47.4395 47.438 60.0005 31.999 60.0005ZM21.968 29.9895C24.172 29.9895 25.958 28.2025 25.958 26.0005C25.958 23.7985 24.172 22.0115 21.968 22.0115C19.763 22.0115 17.978 23.7984 17.978 26.0005C17.978 28.2026 19.763 29.9895 21.968 29.9895ZM41.968 29.9895C44.172 29.9895 45.958 28.2025 45.958 26.0005C45.958 23.7985 44.172 22.0115 41.968 22.0115C39.763 22.0115 37.978 23.7984 37.978 26.0005C37.978 28.2026 39.763 29.9895 41.968 29.9895Z" fill="#EAEAEA"/>
</svg>
