<svg width="208" height="68" viewBox="0 0 208 68" fill="none" xmlns="http://www.w3.org/2000/svg">
<path fill-rule="evenodd" clip-rule="evenodd" d="M201.684 3.16667H6.31613C4.60345 3.16667 3.21505 4.52474 3.21505 6.2V47.8C3.21505 49.4753 4.60345 50.8333 6.31612 50.8333H201.684C203.397 50.8333 204.785 49.4753 204.785 47.8V6.2C204.785 4.52473 203.397 3.16667 201.684 3.16667ZM6.31613 1C3.38011 1 1 3.32812 1 6.2V47.8C1 50.6719 3.38011 53 6.31612 53H201.684C204.62 53 207 50.6719 207 47.8V6.2C207 3.32812 204.62 1 201.684 1H6.31613Z" fill="#1D1D1D" stroke="#FCFAF8"/>
<path d="M38.8405 23.642H36.2801C36.1287 22.9328 35.8637 22.3097 35.4851 21.7727C35.1134 21.2358 34.6592 20.785 34.1223 20.4205C33.5923 20.0492 33.0038 19.7708 32.3568 19.5852C31.7098 19.3996 31.0353 19.3068 30.3332 19.3068C29.053 19.3068 27.8932 19.6184 26.8539 20.2415C25.8215 20.8646 24.999 21.7827 24.3864 22.9957C23.7807 24.2088 23.4779 25.697 23.4779 27.4602C23.4779 29.2235 23.7807 30.7116 24.3864 31.9247C24.999 33.1378 25.8215 34.0559 26.8539 34.679C27.8932 35.3021 29.053 35.6136 30.3332 35.6136C31.0353 35.6136 31.7098 35.5208 32.3568 35.3352C33.0038 35.1496 33.5923 34.8745 34.1223 34.5099C34.6592 34.1387 35.1134 33.6847 35.4851 33.1477C35.8637 32.6042 36.1287 31.9811 36.2801 31.2784H38.8405C38.6478 32.3191 38.2968 33.2505 37.7874 34.0724C37.2781 34.8944 36.6449 35.5938 35.8878 36.1705C35.1306 36.7405 34.2806 37.1747 33.3376 37.473C32.4016 37.7713 31.4001 37.9205 30.3332 37.9205C28.5299 37.9205 26.9262 37.4962 25.5221 36.6477C24.118 35.7992 23.0133 34.5928 22.208 33.0284C21.4027 31.464 21 29.608 21 27.4602C21 25.3125 21.4027 23.4564 22.208 21.892C23.0133 20.3277 24.118 19.1212 25.5221 18.2727C26.9262 17.4242 28.5299 17 30.3332 17C31.4001 17 32.4016 17.1491 33.3376 17.4474C34.2806 17.7457 35.1306 18.1832 35.8878 18.7599C36.6449 19.33 37.2781 20.026 37.7874 20.848C38.2968 21.6634 38.6478 22.5947 38.8405 23.642Z" fill="#1D1D1D"/>
<path d="M57.7658 27.4602C57.7658 29.608 57.3632 31.464 56.5579 33.0284C55.7526 34.5928 54.6479 35.7992 53.2438 36.6477C51.8397 37.4962 50.2359 37.9205 48.4326 37.9205C46.6293 37.9205 45.0256 37.4962 43.6214 36.6477C42.2173 35.7992 41.1126 34.5928 40.3073 33.0284C39.502 31.464 39.0994 29.608 39.0994 27.4602C39.0994 25.3125 39.502 23.4564 40.3073 21.892C41.1126 20.3277 42.2173 19.1212 43.6214 18.2727C45.0256 17.4242 46.6293 17 48.4326 17C50.2359 17 51.8397 17.4242 53.2438 18.2727C54.6479 19.1212 55.7526 20.3277 56.5579 21.892C57.3632 23.4564 57.7658 25.3125 57.7658 27.4602ZM55.288 27.4602C55.288 25.697 54.9817 24.2088 54.3691 22.9957C53.7634 21.7827 52.9409 20.8646 51.9016 20.2415C50.8692 19.6184 49.7128 19.3068 48.4326 19.3068C47.1524 19.3068 45.9926 19.6184 44.9533 20.2415C43.9209 20.8646 43.0983 21.7827 42.4858 22.9957C41.8801 24.2088 41.5772 25.697 41.5772 27.4602C41.5772 29.2235 41.8801 30.7116 42.4858 31.9247C43.0983 33.1378 43.9209 34.0559 44.9533 34.679C45.9926 35.3021 47.1524 35.6136 48.4326 35.6136C49.7128 35.6136 50.8692 35.3021 51.9016 34.679C52.9409 34.0559 53.7634 33.1378 54.3691 31.9247C54.9817 30.7116 55.288 29.2235 55.288 27.4602Z" fill="#1D1D1D"/>
<path d="M59.0184 17.2784H62.0744L69.2602 34.1818H69.508L76.6937 17.2784H79.7498V37.642H77.3545V22.1705H77.148L70.5404 37.642H68.2277L61.6201 22.1705H61.4137V37.642H59.0184V17.2784Z" fill="#1D1D1D"/>
<path d="M81.8308 37.642V17.2784H88.9753C90.6341 17.2784 91.99 17.5668 93.0431 18.1435C94.1031 18.7135 94.8877 19.4858 95.3971 20.4602C95.9064 21.4347 96.1611 22.5218 96.1611 23.7216C96.1611 24.9214 95.9064 26.0118 95.3971 26.9929C94.8946 27.974 94.1169 28.7562 93.0638 29.3395C92.0107 29.9162 90.6616 30.2045 89.0166 30.2045H83.8957V28.017H88.934C90.0697 28.017 90.9817 27.8281 91.67 27.4503C92.3583 27.0724 92.8573 26.562 93.167 25.919C93.4836 25.2694 93.6419 24.5369 93.6419 23.7216C93.6419 22.9063 93.4836 22.1771 93.167 21.5341C92.8573 20.8911 92.3548 20.3873 91.6597 20.0227C90.9645 19.6515 90.0422 19.4659 88.8927 19.4659H84.3913V37.642H81.8308Z" fill="#1D1D1D"/>
<path d="M95.9424 37.642H93.2581L101.022 17.2784H103.665L111.429 37.642H108.745L102.426 20.5H102.261L95.9424 37.642ZM96.9336 29.6875H107.754V31.875H96.9336V29.6875Z" fill="#1D1D1D"/>
<path d="M123.233 22.3693C123.109 21.3617 122.607 20.5795 121.726 20.0227C120.845 19.4659 119.764 19.1875 118.484 19.1875C117.548 19.1875 116.729 19.3333 116.027 19.625C115.331 19.9167 114.788 20.3177 114.395 20.8281C114.01 21.3385 113.817 21.9186 113.817 22.5682C113.817 23.1117 113.951 23.5791 114.22 23.9702C114.495 24.3546 114.846 24.6761 115.273 24.9347C115.7 25.1866 116.147 25.3954 116.615 25.5611C117.083 25.7202 117.513 25.8494 117.906 25.9489L120.053 26.5057C120.604 26.6449 121.216 26.8371 121.891 27.0824C122.572 27.3277 123.223 27.6624 123.842 28.0866C124.469 28.5043 124.985 29.0412 125.391 29.6974C125.797 30.3537 126 31.1591 126 32.1136C126 33.214 125.701 34.2083 125.102 35.0966C124.51 35.9848 123.643 36.6908 122.5 37.2145C121.364 37.7382 119.984 38 118.36 38C116.846 38 115.535 37.7647 114.426 37.294C113.325 36.8234 112.458 36.1671 111.825 35.3253C111.198 34.4834 110.844 33.5057 110.761 32.392H113.404C113.473 33.161 113.742 33.7973 114.21 34.3011C114.684 34.7983 115.283 35.1695 116.006 35.4148C116.736 35.6534 117.52 35.7727 118.36 35.7727C119.337 35.7727 120.215 35.6203 120.993 35.3153C121.77 35.0038 122.386 34.5729 122.841 34.0227C123.295 33.4659 123.522 32.8163 123.522 32.0739C123.522 31.3977 123.326 30.8475 122.934 30.4233C122.541 29.9991 122.025 29.6544 121.385 29.3892C120.745 29.1241 120.053 28.892 119.31 28.6932L116.708 27.9773C115.056 27.5199 113.748 26.867 112.785 26.0185C111.821 25.17 111.339 24.0597 111.339 22.6875C111.339 21.5473 111.659 20.553 112.3 19.7045C112.947 18.8494 113.814 18.1866 114.901 17.7159C115.996 17.2386 117.217 17 118.566 17C119.929 17 121.141 17.2353 122.201 17.706C123.261 18.17 124.1 18.8063 124.72 19.6151C125.346 20.4238 125.677 21.3419 125.711 22.3693H123.233Z" fill="#1D1D1D"/>
<path d="M138 37.7205V17.2795H145.322C147.022 17.2795 148.412 17.5689 149.491 18.1478C150.577 18.7201 151.382 19.4952 151.904 20.4734C152.426 21.4515 152.687 22.5428 152.687 23.7471C152.687 24.9515 152.426 26.0461 151.904 27.0309C151.389 28.0157 150.592 28.8009 149.512 29.3864C148.433 29.9653 147.05 30.2548 145.364 30.2548H140.116V28.0589H145.28C146.444 28.0589 147.378 27.8693 148.084 27.49C148.789 27.1107 149.301 26.5984 149.618 25.9529C149.943 25.3009 150.105 24.5656 150.105 23.7471C150.105 22.9287 149.943 22.1968 149.618 21.5513C149.301 20.9059 148.786 20.4002 148.073 20.0342C147.361 19.6616 146.416 19.4753 145.237 19.4753H140.624V37.7205H138Z" fill="#1D1D1D"/>
<path d="M153.785 37.7205V17.2795H161.107C162.8 17.2795 164.19 17.5523 165.276 18.0979C166.363 18.6369 167.167 19.3788 167.689 20.3237C168.211 21.2685 168.472 22.3432 168.472 23.5475C168.472 24.7519 168.211 25.8199 167.689 26.7514C167.167 27.683 166.366 28.4149 165.287 28.9472C164.208 29.4729 162.828 29.7357 161.15 29.7357H155.224V27.5H161.065C162.222 27.5 163.153 27.3403 163.858 27.0209C164.571 26.7015 165.086 26.2491 165.403 25.6635C165.728 25.0713 165.89 24.366 165.89 23.5475C165.89 22.7291 165.728 22.0138 165.403 21.4016C165.079 20.7894 164.56 20.317 163.848 19.9843C163.135 19.645 162.194 19.4753 161.023 19.4753H156.409V37.7205H153.785ZM163.985 28.538L169.318 37.7205H166.271L161.023 28.538H163.985Z" fill="#1D1D1D"/>
<path d="M188 27.5C188 29.6559 187.587 31.519 186.762 33.0894C185.937 34.6597 184.804 35.8707 183.365 36.7224C181.926 37.5741 180.283 38 178.435 38C176.586 38 174.943 37.5741 173.504 36.7224C172.065 35.8707 170.933 34.6597 170.107 33.0894C169.282 31.519 168.869 29.6559 168.869 27.5C168.869 25.3441 169.282 23.481 170.107 21.9106C170.933 20.3403 172.065 19.1293 173.504 18.2776C174.943 17.4259 176.586 17 178.435 17C180.283 17 181.926 17.4259 183.365 18.2776C184.804 19.1293 185.937 20.3403 186.762 21.9106C187.587 23.481 188 25.3441 188 27.5ZM185.461 27.5C185.461 25.73 185.147 24.2362 184.519 23.0185C183.898 21.8009 183.055 20.8793 181.99 20.2538C180.932 19.6283 179.747 19.3156 178.435 19.3156C177.123 19.3156 175.934 19.6283 174.869 20.2538C173.811 20.8793 172.968 21.8009 172.34 23.0185C171.719 24.2362 171.409 25.73 171.409 27.5C171.409 29.27 171.719 30.7638 172.34 31.9815C172.968 33.1991 173.811 34.1207 174.869 34.7462C175.934 35.3717 177.123 35.6844 178.435 35.6844C179.747 35.6844 180.932 35.3717 181.99 34.7462C183.055 34.1207 183.898 33.1991 184.519 31.9815C185.147 30.7638 185.461 29.27 185.461 27.5Z" fill="#1D1D1D"/>
<path d="M7.73295 61H6.85227C6.80019 60.7467 6.70904 60.5241 6.57884 60.3324C6.45099 60.1406 6.29474 59.9796 6.11009 59.8494C5.92779 59.7169 5.72538 59.6174 5.50284 59.5511C5.2803 59.4848 5.0483 59.4517 4.80682 59.4517C4.36648 59.4517 3.96757 59.563 3.61009 59.7855C3.25497 60.008 2.97206 60.3359 2.76136 60.7692C2.55303 61.2024 2.44886 61.7339 2.44886 62.3636C2.44886 62.9934 2.55303 63.5249 2.76136 63.9581C2.97206 64.3913 3.25497 64.7192 3.61009 64.9418C3.96757 65.1643 4.36648 65.2756 4.80682 65.2756C5.0483 65.2756 5.2803 65.2424 5.50284 65.1761C5.72538 65.1098 5.92779 65.0116 6.11009 64.8814C6.29474 64.7488 6.45099 64.5866 6.57884 64.3949C6.70904 64.2008 6.80019 63.9782 6.85227 63.7273H7.73295C7.66667 64.099 7.54593 64.4316 7.37074 64.7251C7.19555 65.0187 6.97775 65.2685 6.71733 65.4744C6.45691 65.678 6.16454 65.8331 5.8402 65.9396C5.51823 66.0462 5.17377 66.0994 4.80682 66.0994C4.18655 66.0994 3.63494 65.9479 3.15199 65.6449C2.66903 65.3419 2.28906 64.911 2.01207 64.3523C1.73509 63.7936 1.59659 63.1307 1.59659 62.3636C1.59659 61.5966 1.73509 60.9337 2.01207 60.375C2.28906 59.8163 2.66903 59.3854 3.15199 59.0824C3.63494 58.7794 4.18655 58.6278 4.80682 58.6278C5.17377 58.6278 5.51823 58.6811 5.8402 58.7876C6.16454 58.8942 6.45691 59.0504 6.71733 59.2564C6.97775 59.46 7.19555 59.7086 7.37074 60.0021C7.54593 60.2933 7.66667 60.6259 7.73295 61ZM12.1686 66V58.7273H13.0493V61.9659H16.9271V58.7273H17.8078V66H16.9271V62.7472H13.0493V66H12.1686ZM19.9692 66H19.0459L21.7164 58.7273H22.6255L25.2959 66H24.3726L22.1993 59.8778H22.1425L19.9692 66ZM20.3101 63.1591H24.0317V63.9403H20.3101V63.1591ZM26.5287 58.7273H27.5799L30.0515 64.7642H30.1367L32.6083 58.7273H33.6594V66H32.8355V60.4744H32.7645L30.4918 66H29.6963L27.4236 60.4744H27.3526V66H26.5287V58.7273ZM35.5252 58.7273H36.3917V64.4517H36.4627L40.44 58.7273H41.2923V66H40.4116V60.2898H40.3406L36.3775 66H35.5252V58.7273ZM46.067 66V58.7273H48.6096C49.1163 58.7273 49.5341 58.8149 49.8632 58.9901C50.1922 59.1629 50.4373 59.3961 50.5983 59.6896C50.7592 59.9808 50.8397 60.304 50.8397 60.6591C50.8397 60.9716 50.7841 61.2296 50.6728 61.4332C50.5639 61.6368 50.4195 61.7978 50.2396 61.9162C50.062 62.0346 49.8691 62.1222 49.6608 62.179V62.25C49.8833 62.2642 50.107 62.3423 50.3319 62.4844C50.5568 62.6264 50.745 62.83 50.8966 63.0952C51.0481 63.3603 51.1238 63.6847 51.1238 64.0682C51.1238 64.4328 51.041 64.7607 50.8752 65.0518C50.7095 65.343 50.4479 65.5739 50.0904 65.7443C49.733 65.9148 49.2678 66 48.6949 66H46.067ZM46.9477 65.2188H48.6949C49.2701 65.2188 49.6785 65.1075 49.92 64.8849C50.1638 64.66 50.2858 64.3878 50.2858 64.0682C50.2858 63.822 50.223 63.5947 50.0976 63.3864C49.9721 63.1757 49.7933 63.0076 49.5613 62.8821C49.3293 62.7543 49.0547 62.6903 48.7375 62.6903H46.9477V65.2188ZM46.9477 61.9233H48.5812C48.8464 61.9233 49.0855 61.8712 49.2985 61.767C49.514 61.6629 49.6844 61.5161 49.8099 61.3267C49.9377 61.1373 50.0017 60.9148 50.0017 60.6591C50.0017 60.3395 49.8904 60.0684 49.6679 59.8459C49.4453 59.621 49.0926 59.5085 48.6096 59.5085H46.9477V61.9233ZM61.0238 58.7273V66H60.1431V59.5085H56.4783V66H55.5976V58.7273H61.0238ZM62.9002 66V58.7273H65.3576C65.9281 58.7273 66.3945 58.8303 66.7567 59.0362C67.1213 59.2398 67.3912 59.5156 67.5664 59.8636C67.7416 60.2116 67.8292 60.5999 67.8292 61.0284C67.8292 61.4569 67.7416 61.8464 67.5664 62.1967C67.3936 62.5471 67.1261 62.8265 66.7638 63.0348C66.4016 63.2408 65.9376 63.3438 65.3718 63.3438H63.6104V62.5625H65.3434C65.734 62.5625 66.0477 62.495 66.2844 62.3601C66.5212 62.2251 66.6928 62.0429 66.7994 61.8132C66.9083 61.5812 66.9627 61.3196 66.9627 61.0284C66.9627 60.7372 66.9083 60.4768 66.7994 60.2472C66.6928 60.0175 66.52 59.8376 66.2809 59.7074C66.0418 59.5748 65.7246 59.5085 65.3292 59.5085H63.7809V66H62.9002ZM68.904 66H67.9807L70.6511 58.7273H71.5602L74.2307 66H73.3074L71.1341 59.8778H71.0773L68.904 66ZM69.2449 63.1591H72.9665V63.9403H69.2449V63.1591ZM75.4635 66V58.7273H78.0061C78.5127 58.7273 78.9306 58.8149 79.2597 58.9901C79.5887 59.1629 79.8338 59.3961 79.9947 59.6896C80.1557 59.9808 80.2362 60.304 80.2362 60.6591C80.2362 60.9716 80.1806 61.2296 80.0693 61.4332C79.9604 61.6368 79.816 61.7978 79.6361 61.9162C79.4585 62.0346 79.2656 62.1222 79.0572 62.179V62.25C79.2798 62.2642 79.5035 62.3423 79.7284 62.4844C79.9533 62.6264 80.1415 62.83 80.293 63.0952C80.4446 63.3603 80.5203 63.6847 80.5203 64.0682C80.5203 64.4328 80.4374 64.7607 80.2717 65.0518C80.106 65.343 79.8444 65.5739 79.4869 65.7443C79.1294 65.9148 78.6642 66 78.0913 66H75.4635ZM76.3442 65.2188H78.0913C78.6666 65.2188 79.075 65.1075 79.3165 64.8849C79.5603 64.66 79.6822 64.3878 79.6822 64.0682C79.6822 63.822 79.6195 63.5947 79.494 63.3864C79.3686 63.1757 79.1898 63.0076 78.9578 62.8821C78.7258 62.7543 78.4512 62.6903 78.1339 62.6903H76.3442V65.2188ZM76.3442 61.9233H77.9777C78.2428 61.9233 78.482 61.8712 78.695 61.767C78.9105 61.6629 79.0809 61.5161 79.2064 61.3267C79.3342 61.1373 79.3982 60.9148 79.3982 60.6591C79.3982 60.3395 79.2869 60.0684 79.0643 59.8459C78.8418 59.621 78.4891 59.5085 78.0061 59.5085H76.3442V61.9233ZM82.0674 58.7273H82.9339V64.4517H83.0049L86.9822 58.7273H87.8344V66H86.9538V60.2898H86.8827L82.9197 66H82.0674V58.7273ZM89.0717 66V65.1903H89.2848C89.5878 65.1903 89.8234 65.0933 89.9914 64.8991C90.1595 64.705 90.2803 64.3913 90.3537 63.9581C90.4294 63.5249 90.4803 62.9508 90.5064 62.2358L90.6342 58.7273H95.066V66H94.1853V59.5085H91.4723L91.3586 62.4062C91.3302 63.1686 91.2604 63.8172 91.1491 64.3523C91.0378 64.8873 90.8425 65.2957 90.5632 65.5774C90.2838 65.8591 89.8766 66 89.3416 66H89.0717ZM97.579 61.7812H99.6529C100.174 61.7812 100.613 61.8665 100.97 62.0369C101.33 62.2074 101.602 62.4477 101.787 62.7578C101.974 63.0679 102.068 63.4337 102.068 63.8551C102.068 64.2765 101.974 64.6482 101.787 64.9702C101.602 65.2921 101.33 65.5443 100.97 65.7266C100.613 65.9089 100.174 66 99.6529 66H96.9256V58.7273H97.8063V65.233H99.6529C99.9843 65.233 100.265 65.1667 100.494 65.0341C100.727 64.8991 100.902 64.7263 101.02 64.5156C101.141 64.3026 101.201 64.0777 101.201 63.8409C101.201 63.4929 101.067 63.1934 100.8 62.9425C100.532 62.6892 100.15 62.5625 99.6529 62.5625H97.579V61.7812ZM103.559 66V58.7273H104.439V61.9659H108.317V58.7273H109.198V66H108.317V62.7472H104.439V66H103.559ZM117.198 62.3636C117.198 63.1307 117.059 63.7936 116.782 64.3523C116.505 64.911 116.125 65.3419 115.642 65.6449C115.159 65.9479 114.608 66.0994 113.987 66.0994C113.367 66.0994 112.815 65.9479 112.332 65.6449C111.849 65.3419 111.47 64.911 111.193 64.3523C110.916 63.7936 110.777 63.1307 110.777 62.3636C110.777 61.5966 110.916 60.9337 111.193 60.375C111.47 59.8163 111.849 59.3854 112.332 59.0824C112.815 58.7794 113.367 58.6278 113.987 58.6278C114.608 58.6278 115.159 58.7794 115.642 59.0824C116.125 59.3854 116.505 59.8163 116.782 60.375C117.059 60.9337 117.198 61.5966 117.198 62.3636ZM116.345 62.3636C116.345 61.7339 116.24 61.2024 116.029 60.7692C115.821 60.3359 115.538 60.008 115.18 59.7855C114.825 59.563 114.428 59.4517 113.987 59.4517C113.547 59.4517 113.148 59.563 112.791 59.7855C112.435 60.008 112.153 60.3359 111.942 60.7692C111.733 61.2024 111.629 61.7339 111.629 62.3636C111.629 62.9934 111.733 63.5249 111.942 63.9581C112.153 64.3913 112.435 64.7192 112.791 64.9418C113.148 65.1643 113.547 65.2756 113.987 65.2756C114.428 65.2756 114.825 65.1643 115.18 64.9418C115.538 64.7192 115.821 64.3913 116.029 63.9581C116.24 63.5249 116.345 62.9934 116.345 62.3636ZM118.778 58.7273H119.829L122.301 64.7642H122.386L124.858 58.7273H125.909V66H125.085V60.4744H125.014L122.741 66H121.946L119.673 60.4744H119.602V66H118.778V58.7273ZM130.687 66V58.7273H131.568V61.9659H135.446V58.7273H136.327V66H135.446V62.7472H131.568V66H130.687ZM138.488 66H137.565L140.235 58.7273H141.144L143.815 66H142.891L140.718 59.8778H140.661L138.488 66ZM138.829 63.1591H142.55V63.9403H138.829V63.1591ZM150.488 58.7273V66H149.607V59.5085H145.942V66H145.062V58.7273H150.488ZM152.364 66V58.7273H154.822C155.392 58.7273 155.859 58.8303 156.221 59.0362C156.585 59.2398 156.855 59.5156 157.03 59.8636C157.206 60.2116 157.293 60.5999 157.293 61.0284C157.293 61.4569 157.206 61.8464 157.03 62.1967C156.858 62.5471 156.59 62.8265 156.228 63.0348C155.866 63.2408 155.402 63.3438 154.836 63.3438H153.075V62.5625H154.807C155.198 62.5625 155.512 62.495 155.749 62.3601C155.985 62.2251 156.157 62.0429 156.263 61.8132C156.372 61.5812 156.427 61.3196 156.427 61.0284C156.427 60.7372 156.372 60.4768 156.263 60.2472C156.157 60.0175 155.984 59.8376 155.745 59.7074C155.506 59.5748 155.189 59.5085 154.793 59.5085H153.245V66H152.364ZM158.368 66H157.445L160.115 58.7273H161.024L163.695 66H162.771L160.598 59.8778H160.541L158.368 66ZM158.709 63.1591H162.431V63.9403H158.709V63.1591ZM164.928 66V58.7273H167.47C167.977 58.7273 168.395 58.8149 168.724 58.9901C169.053 59.1629 169.298 59.3961 169.459 59.6896C169.62 59.9808 169.7 60.304 169.7 60.6591C169.7 60.9716 169.645 61.2296 169.533 61.4332C169.424 61.6368 169.28 61.7978 169.1 61.9162C168.923 62.0346 168.73 62.1222 168.521 62.179V62.25C168.744 62.2642 168.968 62.3423 169.192 62.4844C169.417 62.6264 169.606 62.83 169.757 63.0952C169.909 63.3603 169.984 63.6847 169.984 64.0682C169.984 64.4328 169.902 64.7607 169.736 65.0518C169.57 65.343 169.308 65.5739 168.951 65.7443C168.594 65.9148 168.128 66 167.555 66H164.928ZM165.808 65.2188H167.555C168.131 65.2188 168.539 65.1075 168.781 64.8849C169.024 64.66 169.146 64.3878 169.146 64.0682C169.146 63.822 169.084 63.5947 168.958 63.3864C168.833 63.1757 168.654 63.0076 168.422 62.8821C168.19 62.7543 167.915 62.6903 167.598 62.6903H165.808V65.2188ZM165.808 61.9233H167.442C167.707 61.9233 167.946 61.8712 168.159 61.767C168.375 61.6629 168.545 61.5161 168.67 61.3267C168.798 61.1373 168.862 60.9148 168.862 60.6591C168.862 60.3395 168.751 60.0684 168.528 59.8459C168.306 59.621 167.953 59.5085 167.47 59.5085H165.808V61.9233ZM170.906 66V65.1903H171.12C171.423 65.1903 171.658 65.0933 171.826 64.8991C171.994 64.705 172.115 64.3913 172.188 63.9581C172.264 63.5249 172.315 62.9508 172.341 62.2358L172.469 58.7273H176.901V66H176.02V59.5085H173.307L173.193 62.4062C173.165 63.1686 173.095 63.8172 172.984 64.3523C172.873 64.8873 172.677 65.2957 172.398 65.5774C172.119 65.8591 171.711 66 171.176 66H170.906ZM178.76 66V58.7273H183.15V59.5085H179.641V61.9659H182.922V62.7472H179.641V65.2188H183.206V66H178.76ZM184.837 66V58.7273H185.718V61.9659H189.595V58.7273H190.476V66H189.595V62.7472H185.718V66H184.837ZM192.339 58.7273H193.206V64.4517H193.277L197.254 58.7273H198.106V66H197.226V60.2898H197.155L193.192 66H192.339V58.7273ZM199.969 58.7273H200.835V64.4517H200.906L204.883 58.7273H205.736V66H204.855V60.2898H204.784L200.821 66H199.969V58.7273Z" fill="#1D1D1D"/>
</svg>
