<svg width="58" height="64" viewBox="0 0 58 64" fill="none" xmlns="http://www.w3.org/2000/svg">
<path fill-rule="evenodd" clip-rule="evenodd" d="M14.5 6.24201C21.4393 2.13298 24.909 0.078471 28.7137 0.00284467C28.9046 -0.000948222 29.0954 -0.000948222 29.2863 0.00284467C33.091 0.078471 36.5607 2.13298 43.5 6.24201C50.4393 10.351 53.909 12.4056 55.8752 15.7472C55.9738 15.9148 56.0693 16.0843 56.1615 16.2557C58 19.6729 58 23.7819 58 32C58 40.2181 58 44.3271 56.1615 47.7443C56.0693 47.9157 55.9738 48.0852 55.8752 48.2528C53.909 51.5944 50.4393 53.649 43.5 57.758C36.5607 61.867 33.091 63.9215 29.2863 63.9972C29.0954 64.0009 28.9046 64.0009 28.7137 63.9972C24.909 63.9215 21.4393 61.867 14.5 57.758C7.56069 53.649 4.09104 51.5944 2.12479 48.2528C2.02618 48.0852 1.93074 47.9157 1.83853 47.7443C0 44.3271 0 40.2181 0 32C0 23.7819 0 19.6729 1.83853 16.2557C1.93074 16.0843 2.02618 15.9148 2.12479 15.7472C4.09104 12.4056 7.56069 10.351 14.5 6.24201ZM16.0557 34.4994L13.1011 32.7498C12.5383 32.4165 12.5383 31.5834 13.1011 31.2502L16.0557 29.5006C16.6185 29.1673 17.322 29.5839 17.322 30.2504V33.7496C17.322 34.4161 16.6185 34.8326 16.0557 34.4994ZM44.899 32.7498L41.9443 34.4994C41.3815 34.8326 40.678 34.4161 40.678 33.7496V30.2504C40.678 29.5839 41.3815 29.1673 41.9443 29.5006L44.899 31.2502C45.4618 31.5834 45.4618 32.4165 44.899 32.7498ZM30.6645 49.6049L38.8892 34.9943C39.447 34.0034 39.0815 32.8303 38.2455 32.2794C38.1148 32.1933 38.1148 31.8067 38.2455 31.7206C39.0815 31.1697 39.447 29.9966 38.8892 29.0057L38.6475 28.5764L30.6644 14.3951C29.9063 13.0483 28.0108 13.0483 27.2527 14.3951L19.0279 29.0057C18.4701 29.9966 18.8356 31.1697 19.6716 31.7206C19.8023 31.8067 19.8023 32.1933 19.6716 32.2794C18.8356 32.8303 18.4701 34.0034 19.0279 34.9943L21.8068 39.9307L27.2527 49.6049C28.0109 50.9517 29.9063 50.9517 30.6645 49.6049Z" fill="white"/>
<path d="M30.6645 49.6049L38.8892 34.9943C39.447 34.0034 39.0815 32.8303 38.2455 32.2794C38.1148 32.1933 38.1148 31.8067 38.2455 31.7206C39.0815 31.1697 39.447 29.9966 38.8892 29.0057L38.6475 28.5764C35.6883 35.1444 29.2808 39.7433 21.8068 39.9307L27.2527 49.6049C28.0109 50.9517 29.9063 50.9517 30.6645 49.6049Z" fill="url(#paint0_linear_693_808)"/>
<defs>
<linearGradient id="paint0_linear_693_808" x1="29" y1="22.9089" x2="29" y2="53.934" gradientUnits="userSpaceOnUse">
<stop stop-color="white"/>
<stop offset="1" stop-color="white" stop-opacity="0"/>
</linearGradient>
</defs>
</svg>
