<svg width="180" height="180" viewBox="0 0 180 180" fill="none" xmlns="http://www.w3.org/2000/svg">
<path fill-rule="evenodd" clip-rule="evenodd" d="M53.75 25.605C71.0983 15.3325 79.7724 10.1962 89.2844 10.0071C89.7614 9.99763 90.2386 9.99763 90.7156 10.0071C100.228 10.1962 108.902 15.3325 126.25 25.605C143.598 35.8776 152.272 41.0139 157.188 49.3679C157.435 49.7869 157.673 50.2107 157.904 50.6392C162.5 59.1823 162.5 69.4549 162.5 90C162.5 110.545 162.5 120.818 157.904 129.361C157.673 129.789 157.435 130.213 157.188 130.632C152.272 138.986 143.598 144.122 126.25 154.395C108.902 164.668 100.228 169.804 90.7156 169.993C90.2386 170.002 89.7614 170.002 89.2844 169.993C79.7724 169.804 71.0983 164.668 53.75 154.395C36.4017 144.122 27.7276 138.986 22.812 130.632C22.5654 130.213 22.3268 129.789 22.0963 129.361C17.5 120.818 17.5 110.545 17.5 90C17.5 69.4549 17.5 59.1823 22.0963 50.6392C22.3268 50.2107 22.5654 49.7869 22.812 49.3679C27.7276 41.0139 36.4017 35.8776 53.75 25.605ZM57.6393 96.2484L50.2527 91.8745C48.8457 91.0414 48.8457 88.9586 50.2527 88.1254L57.6393 83.7515C59.0463 82.9184 60.8051 83.9598 60.8051 85.626V94.3739C60.8051 96.0402 59.0463 97.0816 57.6393 96.2484ZM129.747 91.8745L122.361 96.2484C120.954 97.0816 119.195 96.0402 119.195 94.3739V85.626C119.195 83.9598 120.954 82.9184 122.361 83.7515L129.747 88.1254C131.154 88.9586 131.154 91.0414 129.747 91.8745ZM94.1611 134.012L114.723 97.4857C116.118 95.0086 115.204 92.0758 113.114 90.6986C112.787 90.4833 112.787 89.5167 113.114 89.3014C115.204 87.9241 116.118 84.9914 114.723 82.5143L114.119 81.4409L94.1611 45.9878C92.2657 42.6207 87.5271 42.6207 85.6317 45.9878L65.0697 82.5143C63.6752 84.9914 64.5891 87.9242 66.679 89.3014C67.0057 89.5167 67.0057 90.4833 66.679 90.6986C64.5891 92.0759 63.6753 95.0086 65.0698 97.4857L72.0169 109.827L85.6317 134.012C87.5271 137.379 92.2657 137.379 94.1611 134.012Z" fill="#3F3F3F"/>
<path d="M94.1611 134.012L114.723 97.4857C116.118 95.0086 115.204 92.0758 113.114 90.6986C112.787 90.4833 112.787 89.5167 113.114 89.3014C115.204 87.9241 116.118 84.9914 114.723 82.5143L114.119 81.4409C106.721 97.861 90.7021 109.358 72.0169 109.827L85.6317 134.012C87.5271 137.379 92.2657 137.379 94.1611 134.012Z" fill="url(#paint0_linear_802_5)"/>
<defs>
<linearGradient id="paint0_linear_802_5" x1="90" y1="67.2723" x2="90" y2="144.835" gradientUnits="userSpaceOnUse">
<stop stop-color="#3F3F3F"/>
<stop offset="1" stop-color="white"/>
</linearGradient>
</defs>
</svg>
